# xmcd CD Database Entry
#
# Track frame offsets:
# 150
# 23887
# 43382
# 65340
#
# Disc length: 1188 seconds
#
# Revision: 2
# Processed by: cddbd v1.4b41PL2 Copyright (c) Steve Scherf et al.
# Submitted via: tcd 2.0b
#
DISCID=3204a204
DTITLE=Van Morrison - The Healing Game 
DYEAR=1900
DGENRE=
TTITLE0=The Healing Game
TTITLE1=Have I Told You Lately That I Love You
TTITLE2=Whenever God Shines His Light
TTITLE3=Gloria
EXTD=UK single disc
EXTT0=
EXTT1=
EXTT2=with Cliff Richards
EXTT3=with John Lee Hooker
PLAYORDER=
